<svg width="112" height="98" viewBox="0 0 112 98" fill="none" xmlns="http://www.w3.org/2000/svg">
<path d="M56.8051 12H55.1949C53.2538 12 51.3922 12.7711 50.0196 14.1437C48.647 15.5163 47.8759 17.3779 47.8759 19.319V19.9777C47.8746 21.2612 47.5357 22.5218 46.8934 23.633C46.2511 24.7442 45.3279 25.667 44.2164 26.3087L42.6428 27.2236C41.5301 27.866 40.268 28.2042 38.9832 28.2042C37.6985 28.2042 36.4364 27.866 35.3237 27.2236L34.7748 26.9308C33.0953 25.962 31.1 25.6992 29.227 26.2001C27.3539 26.7009 25.7561 27.9245 24.7843 29.6023L23.9792 30.9929C23.0104 32.6724 22.7476 34.6677 23.2484 36.5407C23.7493 38.4138 24.9729 40.0116 26.6507 40.9834L27.1996 41.3493C28.3058 41.988 29.2256 42.905 29.8676 44.0092C30.5096 45.1134 30.8514 46.3664 30.8591 47.6437V49.5101C30.8642 50.7998 30.5285 52.0679 29.8858 53.1861C29.2432 54.3043 28.3165 55.2328 27.1996 55.8776L26.6507 56.207C24.9729 57.1788 23.7493 58.7766 23.2484 60.6496C22.7476 62.5227 23.0104 64.518 23.9792 66.1975L24.7843 67.5881C25.7561 69.2658 27.3539 70.4895 29.227 70.9903C31.1 71.4912 33.0953 71.2283 34.7748 70.2595L35.3237 69.9668C36.4364 69.3244 37.6985 68.9862 38.9832 68.9862C40.268 68.9862 41.5301 69.3244 42.6428 69.9668L44.2164 70.8817C45.3279 71.5234 46.2511 72.4462 46.8934 73.5574C47.5357 74.6686 47.8746 75.9291 47.8759 77.2126V77.8713C47.8759 79.8125 48.647 81.6741 50.0196 83.0467C51.3922 84.4193 53.2538 85.1904 55.1949 85.1904H56.8051C58.7462 85.1904 60.6078 84.4193 61.9804 83.0467C63.353 81.6741 64.1241 79.8125 64.1241 77.8713V77.2126C64.1254 75.9291 64.4643 74.6686 65.1066 73.5574C65.7489 72.4462 66.6721 71.5234 67.7837 70.8817L69.3572 69.9668C70.4699 69.3244 71.732 68.9862 73.0168 68.9862C74.3015 68.9862 75.5636 69.3244 76.6763 69.9668L77.2252 70.2595C78.9047 71.2283 80.9 71.4912 82.773 70.9903C84.6461 70.4895 86.2439 69.2658 87.2157 67.5881L88.0208 66.1609C88.9896 64.4814 89.2524 62.4861 88.7516 60.613C88.2507 58.74 87.0271 57.1422 85.3493 56.1704L84.8004 55.8776C83.6835 55.2328 82.7568 54.3043 82.1142 53.1861C81.4715 52.0679 81.1358 50.7998 81.1409 49.5101V47.6803C81.1358 46.3906 81.4715 45.1225 82.1142 44.0043C82.7568 42.8861 83.6835 41.9576 84.8004 41.3127L85.3493 40.9834C87.0271 40.0116 88.2507 38.4138 88.7516 36.5407C89.2524 34.6677 88.9896 32.6724 88.0208 30.9929L87.2157 29.6023C86.2439 27.9245 84.6461 26.7009 82.773 26.2001C80.9 25.6992 78.9047 25.962 77.2252 26.9308L76.6763 27.2236C75.5636 27.866 74.3015 28.2042 73.0168 28.2042C71.732 28.2042 70.4699 27.866 69.3572 27.2236L67.7837 26.3087C66.6721 25.667 65.7489 24.7442 65.1066 23.633C64.4643 22.5218 64.1254 21.2612 64.1241 19.9777V19.319C64.1241 17.3779 63.353 15.5163 61.9804 14.1437C60.6078 12.7711 58.7462 12 56.8051 12Z" stroke="white" stroke-width="2.25" stroke-linecap="round" stroke-linejoin="round"/>
<path d="M56.001 59.5743C62.0643 59.5743 66.9796 54.659 66.9796 48.5957C66.9796 42.5325 62.0643 37.6172 56.001 37.6172C49.9377 37.6172 45.0225 42.5325 45.0225 48.5957C45.0225 54.659 49.9377 59.5743 56.001 59.5743Z" stroke="#7DD80D" stroke-width="2.25" stroke-linecap="round" stroke-linejoin="round"/>
</svg>
