<svg width="167" height="51" viewBox="0 0 167 51" fill="none" xmlns="http://www.w3.org/2000/svg">
<path d="M160.283 50.2619V36.0576C160.283 34.5876 159.821 33.3911 158.898 32.4681C157.975 31.545 156.779 31.0835 155.309 31.0835C154.351 31.0835 153.497 31.2886 152.745 31.6989C151.993 32.1091 151.394 32.6903 150.95 33.4424C150.54 34.1945 150.334 35.0662 150.334 36.0576L147.719 34.7243C147.719 32.7757 148.129 31.0835 148.95 29.6477C149.77 28.1777 150.899 27.0325 152.334 26.212C153.804 25.3916 155.479 24.9813 157.36 24.9813C159.24 24.9813 160.898 25.3916 162.334 26.212C163.804 27.0325 164.949 28.1606 165.769 29.5964C166.59 31.0322 167 32.6903 167 34.5705V50.2619H160.283ZM143.617 50.2619V13.1871H150.334V50.2619H143.617Z" fill="white"/>
<path d="M129.343 50.8216C127.941 50.8216 126.557 50.6336 125.189 50.2575C123.856 49.8815 122.625 49.3687 121.497 48.7191C120.369 48.0354 119.395 47.215 118.574 46.2577L122.574 42.2067C123.429 43.1639 124.42 43.8818 125.548 44.3604C126.676 44.839 127.924 45.0783 129.292 45.0783C130.386 45.0783 131.206 44.9245 131.753 44.6168C132.334 44.3091 132.625 43.8476 132.625 43.2323C132.625 42.5486 132.317 42.0187 131.702 41.6426C131.121 41.2666 130.351 40.9589 129.394 40.7196C128.437 40.4461 127.429 40.1555 126.369 39.8479C125.343 39.506 124.352 39.0787 123.395 38.5659C122.437 38.0189 121.651 37.2839 121.036 36.3609C120.455 35.4037 120.164 34.173 120.164 32.6688C120.164 31.0962 120.54 29.7288 121.292 28.5665C122.078 27.4042 123.189 26.4982 124.625 25.8487C126.061 25.1992 127.753 24.8744 129.702 24.8744C131.753 24.8744 133.599 25.2333 135.24 25.9512C136.915 26.6692 138.3 27.746 139.394 29.1818L135.343 33.2329C134.59 32.3098 133.736 31.6432 132.779 31.233C131.856 30.8228 130.847 30.6176 129.753 30.6176C128.762 30.6176 127.993 30.7715 127.446 31.0792C126.933 31.3868 126.676 31.8142 126.676 32.3611C126.676 32.9765 126.967 33.4551 127.548 33.7969C128.164 34.1388 128.95 34.4465 129.907 34.72C130.864 34.9593 131.856 35.2498 132.881 35.5917C133.941 35.8994 134.932 36.3438 135.855 36.925C136.813 37.5061 137.582 38.2753 138.163 39.2325C138.778 40.1897 139.086 41.4204 139.086 42.9246C139.086 45.3518 138.214 47.2833 136.471 48.7191C134.727 50.1208 132.351 50.8216 129.343 50.8216Z" fill="#7DD80D"/>
<path d="M108.112 50.2608V25.493H114.881V50.2608H108.112ZM111.496 21.4932C110.403 21.4932 109.497 21.1343 108.779 20.4164C108.061 19.6643 107.702 18.7413 107.702 17.6473C107.702 16.5876 108.061 15.6816 108.779 14.9295C109.497 14.1774 110.403 13.8014 111.496 13.8014C112.625 13.8014 113.531 14.1774 114.214 14.9295C114.932 15.6816 115.291 16.5876 115.291 17.6473C115.291 18.7413 114.932 19.6643 114.214 20.4164C113.531 21.1343 112.625 21.4932 111.496 21.4932Z" fill="#7DD80D"/>
<path d="M82.4817 46.4116L95.6091 29.3357H103.711L90.5838 46.4116H82.4817ZM82.4817 50.2575V46.4116L87.8147 44.4117H103.404V50.2575H82.4817ZM83.4047 31.3356V25.4897H103.711V29.3357L98.3269 31.3356H83.4047Z" fill="#7DD80D"/>
<path d="M63.4437 50.257V25.4892H70.1613V50.257H63.4437ZM70.1613 36.5655L67.546 34.822C67.8537 31.7795 68.7426 29.3864 70.2126 27.6429C71.6825 25.8653 73.8021 24.9764 76.5711 24.9764C77.7676 24.9764 78.8445 25.1816 79.8017 25.5918C80.7589 25.9678 81.6307 26.6003 82.4169 27.4891L78.2121 32.3093C77.836 31.8991 77.3745 31.5914 76.8275 31.3863C76.3147 31.1812 75.7165 31.0786 75.0328 31.0786C73.597 31.0786 72.4175 31.5402 71.4945 32.4632C70.6057 33.352 70.1613 34.7195 70.1613 36.5655Z" fill="white"/>
<path d="M43.656 50.7698C41.3997 50.7698 39.3657 50.2057 37.5538 49.0776C35.7419 47.9494 34.3232 46.4111 33.2976 44.4625C32.2721 42.5139 31.7593 40.326 31.7593 37.8988C31.7593 35.4374 32.2721 33.2324 33.2976 31.2838C34.3232 29.3352 35.7419 27.7968 37.5538 26.6687C39.3657 25.5405 41.3997 24.9764 43.656 24.9764C45.4337 24.9764 47.0233 25.3354 48.425 26.0533C49.8266 26.7712 50.9376 27.7797 51.7581 29.0788C52.6127 30.3436 53.0743 31.7795 53.1426 33.3862V42.3088C53.0743 43.9497 52.6127 45.4026 51.7581 46.6675C50.9376 47.9323 49.8266 48.9408 48.425 49.6929C47.0233 50.4108 45.4337 50.7698 43.656 50.7698ZM44.8867 44.565C46.7669 44.565 48.2882 43.9497 49.4505 42.719C50.6129 41.4541 51.194 39.8303 51.194 37.8475C51.194 36.5484 50.9205 35.4032 50.3736 34.4118C49.8608 33.3862 49.1258 32.5999 48.1686 32.0529C47.2455 31.4718 46.1516 31.1812 44.8867 31.1812C43.656 31.1812 42.5621 31.4718 41.6049 32.0529C40.6818 32.5999 39.9468 33.3862 39.3999 34.4118C38.8871 35.4032 38.6307 36.5484 38.6307 37.8475C38.6307 39.1807 38.8871 40.3601 39.3999 41.3857C39.9468 42.3771 40.6818 43.1634 41.6049 43.7446C42.5621 44.2915 43.656 44.565 44.8867 44.565ZM50.8351 50.257V43.5907L51.9119 37.5398L50.8351 31.5914V25.4892H57.5013V50.257H50.8351Z" fill="white"/>
<path d="M14.2043 50.2595L0 14.2103H7.53801L18.5117 43.3881H15.5888L26.6651 14.2103H34.1005L19.7424 50.2595H14.2043Z" fill="white"/>
<rect x="103.275" y="10.9882" width="15.3815" height="13.1842" fill="#272727"/>
<path d="M115.353 15.5372H107.947" stroke="white" stroke-width="0.75" stroke-linecap="round" stroke-linejoin="round"/>
<path d="M124.101 17.7188C124.101 18.2974 123.872 18.8525 123.463 19.2617C123.053 19.671 122.499 19.901 121.92 19.9011C121.341 19.9012 120.786 19.6714 120.377 19.2623C119.968 18.8531 119.738 18.2982 119.738 17.7195L119.738 20.4464C119.738 21.0252 119.508 21.5803 119.099 21.9896C118.69 22.3988 118.135 22.6287 117.556 22.6287C116.977 22.6287 116.422 22.3988 116.013 21.9896C115.604 21.5803 115.374 21.0252 115.374 20.4464V10.628C115.374 10.0492 115.604 9.49417 116.013 9.08491C116.422 8.67565 116.977 8.44573 117.556 8.44573C118.135 8.44573 118.69 8.67565 119.099 9.08491C119.508 9.49417 119.738 10.0492 119.738 10.628L119.738 13.3549C119.738 12.7763 119.968 12.2213 120.377 11.8122C120.786 11.4031 121.341 11.1733 121.92 11.1734C122.499 11.1735 123.053 11.4035 123.463 11.8127C123.872 12.222 124.101 12.777 124.101 13.3557V17.7188Z" stroke="white" stroke-width="0.75" stroke-linecap="round" stroke-linejoin="round"/>
<path d="M126.306 15.5372H124.146" stroke="white" stroke-width="0.75" stroke-linecap="round" stroke-linejoin="round"/>
<path d="M99.1527 15.5372H96.9928" stroke="white" stroke-width="0.75" stroke-linecap="round" stroke-linejoin="round"/>
<path d="M107.924 20.4464C107.924 21.0252 107.694 21.5803 107.285 21.9896C106.875 22.3988 106.32 22.6287 105.742 22.6287C105.163 22.6287 104.608 22.3988 104.198 21.9896C103.789 21.5803 103.559 21.0252 103.559 20.4464L103.56 17.7195C103.56 18.0061 103.503 18.2898 103.394 18.5545C103.284 18.8192 103.123 19.0597 102.921 19.2623C102.511 19.6714 101.956 19.9012 101.378 19.9011C101.091 19.901 100.807 19.8445 100.543 19.7348C100.278 19.6251 100.038 19.4644 99.835 19.2617C99.4258 18.8525 99.1961 18.2974 99.1962 17.7188V13.3557C99.1961 12.777 99.4258 12.222 99.835 11.8127C100.038 11.6101 100.278 11.4493 100.543 11.3396C100.807 11.2299 101.091 11.1735 101.378 11.1734C101.664 11.1734 101.948 11.2297 102.213 11.3393C102.477 11.449 102.718 11.6096 102.921 11.8122C103.123 12.0148 103.284 12.2553 103.394 12.52C103.503 12.7847 103.56 13.0684 103.56 13.3549L103.559 10.628C103.559 10.0492 103.789 9.49417 104.198 9.08491C104.608 8.67565 105.163 8.44573 105.742 8.44573C106.32 8.44573 106.875 8.67565 107.285 9.08491C107.694 9.49417 107.924 10.0492 107.924 10.628V20.4464Z" stroke="white" stroke-width="0.75" stroke-linecap="round" stroke-linejoin="round"/>
</svg>
